<svg width="40" height="40" viewBox="0 0 80 80" fill="none" xmlns="http://www.w3.org/2000/svg">
<path fill-rule="evenodd" clip-rule="evenodd" d="M78.4901 36.444L43.5591 1.50797C42.593 0.542405 41.283 0 39.9172 0C38.5513 0 37.2414 0.542405 36.2753 1.50797L29.0235 8.76798L38.2232 17.968C39.308 17.6001 40.4742 17.5441 41.5892 17.8062C42.7042 18.0683 43.7233 18.6381 44.5305 19.4508C45.3377 20.2634 45.9006 21.2863 46.1553 22.4031C46.41 23.5199 46.3461 24.6857 45.971 25.768L54.8388 34.636C56.1639 34.1805 57.6051 34.1929 58.9222 34.6712C60.2393 35.1495 61.3527 36.0647 62.0768 37.2644C62.8009 38.464 63.0921 39.8756 62.9017 41.2639C62.7113 42.6522 62.0508 43.9332 61.0305 44.8936C60.0101 45.854 58.6914 46.4357 57.2942 46.5417C55.897 46.6477 54.5056 46.2716 53.3521 45.4761C52.1985 44.6807 51.3524 43.5138 50.9547 42.1702C50.5571 40.8265 50.632 39.3872 51.1669 38.092L42.8951 29.82V51.584C44.1519 52.2059 45.1576 53.2398 45.7445 54.5134C46.3315 55.787 46.4642 57.2232 46.1205 58.5828C45.7768 59.9423 44.9776 61.143 43.856 61.9847C42.7344 62.8263 41.3582 63.2581 39.9568 63.2081C38.5554 63.158 37.2136 62.6292 36.1549 61.7096C35.0961 60.7901 34.3846 59.5354 34.1388 58.1548C33.893 56.7742 34.1278 55.3511 34.8041 54.1227C35.4804 52.8942 36.5573 51.9347 37.8552 51.404V29.444C37.1067 29.1373 36.4263 28.6854 35.8533 28.1144C35.2803 27.5435 34.826 26.8647 34.5166 26.1172C34.2072 25.3698 34.0489 24.5685 34.0507 23.7595C34.0526 22.9506 34.2145 22.15 34.5273 21.404L25.4596 12.328L1.50827 36.276C0.54249 37.2428 0 38.5534 0 39.92C0 41.2866 0.54249 42.5972 1.50827 43.564L36.4393 78.492C37.4054 79.4576 38.7153 80 40.0812 80C41.447 80 42.757 79.4576 43.7231 78.492L78.4901 43.724C78.9688 43.2456 79.3485 42.6775 79.6076 42.0522C79.8667 41.427 80 40.7568 80 40.08C80 39.4032 79.8667 38.733 79.6076 38.1078C79.3485 37.4825 78.9688 36.9144 78.4901 36.436" fill="#F95A00"/>
</svg>
