<svg width="40" height="40" viewBox="0 0 80 80" fill="none" xmlns="http://www.w3.org/2000/svg">
<path d="M68.1637 68.1649H56.3103V49.6014C56.3103 45.1749 56.2313 39.4764 50.1453 39.4764C43.9716 39.4764 43.0269 44.2996 43.0269 49.2792V68.1636H31.1737V29.9899H42.5528V35.2067H42.7122C43.851 33.2596 45.4966 31.6577 47.4737 30.5718C49.4508 29.4859 51.6855 28.9565 53.9397 29.0402C65.9538 29.0402 68.1688 36.9427 68.1688 47.2233L68.1637 68.1649ZM17.7987 24.7721C13.9997 24.7727 10.9194 21.6933 10.9187 17.8943C10.9181 14.0952 13.9972 11.0149 17.7962 11.0143C21.5953 11.0133 24.6756 14.0927 24.6762 17.8918C24.6766 19.7161 23.9522 21.4659 22.6624 22.7562C21.3726 24.0465 19.6231 24.7716 17.7987 24.7721ZM23.7256 68.1652H11.8597V29.9899H23.7253L23.7256 68.1652ZM74.0731 0.00582246H5.90344C2.68156 -0.0304275 0.039375 2.55051 0 5.77238V74.2264C0.038125 77.4499 2.68 80.0333 5.90312 79.9995H74.0731C77.3031 80.0395 79.9553 77.4561 80 74.2264V5.76707C79.9541 2.53895 77.3016 -0.0416775 74.0731 0.000509966" fill="#0A66C2"/>
</svg>
