<svg width="17" height="17" viewBox="0 0 17 17" fill="#ffffff" fill-opacity="0.8" xmlns="http://www.w3.org/2000/svg">
<path d="M8.14455 7.16318L7.72727 6.74591L5.82636 4.845L4.63636 3.655L1.83909 0.857727L0.981364 0L0 0.981364L1.55318 2.53455L1.54545 15.6632L4.63636 12.5723H11.5909L16.0186 17L17 16.0186L13.5536 12.5723L8.14455 7.16318ZM6.18182 9.48136H4.63636V7.93591H6.18182V9.48136ZM4.63636 7.16318V5.61773L6.18182 7.16318H4.63636ZM15.4545 0.208636H3.15273L7.72727 4.78318V3.29955H13.9091V4.845H7.78909L8.56182 5.61773H13.9091V7.16318H10.1073L15.5086 12.5645C16.3355 12.5336 17 11.8614 17 11.0268V1.75409C17 0.904091 16.3045 0.208636 15.4545 0.208636Z" />
</svg>
